<mxfile host="app.diagrams.net" agent="Mozilla/5.0 (Windows NT 10.0; Win64; x64) AppleWebKit/537.36 (KHTML, like Gecko) Chrome/131.0.0.0 Safari/537.36" version="24.9.1">
  <diagram id="C5RBs43oDa-KdzZeNtuy" name="Page-1">
    <mxGraphModel dx="1812" dy="1355" grid="1" gridSize="10" guides="1" tooltips="1" connect="1" arrows="1" fold="1" page="0" pageScale="1" pageWidth="827" pageHeight="1169" math="0" shadow="0">
      <root>
        <mxCell id="WIyWlLk6GJQsqaUBKTNV-0" />
        <mxCell id="WIyWlLk6GJQsqaUBKTNV-1" parent="WIyWlLk6GJQsqaUBKTNV-0" />
        <mxCell id="zkfFHV4jXpPFQw0GAbJ--17" value="Productos" style="swimlane;fontStyle=1;align=center;verticalAlign=top;childLayout=stackLayout;horizontal=1;startSize=26;horizontalStack=0;resizeParent=1;resizeLast=0;collapsible=1;marginBottom=0;rounded=0;shadow=0;strokeWidth=1;fontColor=#000000;" parent="WIyWlLk6GJQsqaUBKTNV-1" vertex="1">
          <mxGeometry x="74" y="-446" width="200" height="286" as="geometry">
            <mxRectangle x="550" y="140" width="160" height="26" as="alternateBounds" />
          </mxGeometry>
        </mxCell>
        <mxCell id="zkfFHV4jXpPFQw0GAbJ--18" value="-nombre:String" style="text;align=left;verticalAlign=top;spacingLeft=4;spacingRight=4;overflow=hidden;rotatable=0;points=[[0,0.5],[1,0.5]];portConstraint=eastwest;fontColor=#000000;" parent="zkfFHV4jXpPFQw0GAbJ--17" vertex="1">
          <mxGeometry y="26" width="200" height="26" as="geometry" />
        </mxCell>
        <mxCell id="zkfFHV4jXpPFQw0GAbJ--19" value="-costo_bodega: Double" style="text;align=left;verticalAlign=top;spacingLeft=4;spacingRight=4;overflow=hidden;rotatable=0;points=[[0,0.5],[1,0.5]];portConstraint=eastwest;rounded=0;shadow=0;html=0;fontColor=#000000;" parent="zkfFHV4jXpPFQw0GAbJ--17" vertex="1">
          <mxGeometry y="52" width="200" height="26" as="geometry" />
        </mxCell>
        <mxCell id="zkfFHV4jXpPFQw0GAbJ--20" value="-precio_venta: Double" style="text;align=left;verticalAlign=top;spacingLeft=4;spacingRight=4;overflow=hidden;rotatable=0;points=[[0,0.5],[1,0.5]];portConstraint=eastwest;rounded=0;shadow=0;html=0;fontColor=#000000;" parent="zkfFHV4jXpPFQw0GAbJ--17" vertex="1">
          <mxGeometry y="78" width="200" height="26" as="geometry" />
        </mxCell>
        <mxCell id="zkfFHV4jXpPFQw0GAbJ--21" value="-presentacion: String" style="text;align=left;verticalAlign=top;spacingLeft=4;spacingRight=4;overflow=hidden;rotatable=0;points=[[0,0.5],[1,0.5]];portConstraint=eastwest;rounded=0;shadow=0;html=0;fontColor=#000000;" parent="zkfFHV4jXpPFQw0GAbJ--17" vertex="1">
          <mxGeometry y="104" width="200" height="26" as="geometry" />
        </mxCell>
        <mxCell id="zkfFHV4jXpPFQw0GAbJ--22" value="-cantidad_presentacion: Double" style="text;align=left;verticalAlign=top;spacingLeft=4;spacingRight=4;overflow=hidden;rotatable=0;points=[[0,0.5],[1,0.5]];portConstraint=eastwest;rounded=0;shadow=0;html=0;fontColor=#000000;" parent="zkfFHV4jXpPFQw0GAbJ--17" vertex="1">
          <mxGeometry y="130" width="200" height="26" as="geometry" />
        </mxCell>
        <mxCell id="X5nv6v5gJ5mk2as4WkqO-1" value="-unidad_medida: String" style="text;align=left;verticalAlign=top;spacingLeft=4;spacingRight=4;overflow=hidden;rotatable=0;points=[[0,0.5],[1,0.5]];portConstraint=eastwest;rounded=0;shadow=0;html=0;fontColor=#000000;" parent="zkfFHV4jXpPFQw0GAbJ--17" vertex="1">
          <mxGeometry y="156" width="200" height="26" as="geometry" />
        </mxCell>
        <mxCell id="X5nv6v5gJ5mk2as4WkqO-3" value="-volumen_empaque:Float&#xa;" style="text;align=left;verticalAlign=top;spacingLeft=4;spacingRight=4;overflow=hidden;rotatable=0;points=[[0,0.5],[1,0.5]];portConstraint=eastwest;rounded=0;shadow=0;html=0;fontColor=#000000;" parent="zkfFHV4jXpPFQw0GAbJ--17" vertex="1">
          <mxGeometry y="182" width="200" height="26" as="geometry" />
        </mxCell>
        <mxCell id="oqvjpb8TwHMiU-xqvSP--8" value="-peso_empaque:Float&#xa;" style="text;align=left;verticalAlign=top;spacingLeft=4;spacingRight=4;overflow=hidden;rotatable=0;points=[[0,0.5],[1,0.5]];portConstraint=eastwest;rounded=0;shadow=0;html=0;fontColor=#000000;" parent="zkfFHV4jXpPFQw0GAbJ--17" vertex="1">
          <mxGeometry y="208" width="200" height="26" as="geometry" />
        </mxCell>
        <mxCell id="X5nv6v5gJ5mk2as4WkqO-6" value="-fecha_expiracion: Date" style="text;align=left;verticalAlign=top;spacingLeft=4;spacingRight=4;overflow=hidden;rotatable=0;points=[[0,0.5],[1,0.5]];portConstraint=eastwest;rounded=0;shadow=0;html=0;fontColor=#000000;" parent="zkfFHV4jXpPFQw0GAbJ--17" vertex="1">
          <mxGeometry y="234" width="200" height="26" as="geometry" />
        </mxCell>
        <mxCell id="X5nv6v5gJ5mk2as4WkqO-5" value="-codigo_barras:String" style="text;align=left;verticalAlign=top;spacingLeft=4;spacingRight=4;overflow=hidden;rotatable=0;points=[[0,0.5],[1,0.5]];portConstraint=eastwest;rounded=0;shadow=0;html=0;fontColor=#000000;" parent="zkfFHV4jXpPFQw0GAbJ--17" vertex="1">
          <mxGeometry y="260" width="200" height="26" as="geometry" />
        </mxCell>
        <mxCell id="X5nv6v5gJ5mk2as4WkqO-7" value="Categoria" style="swimlane;fontStyle=1;align=center;verticalAlign=top;childLayout=stackLayout;horizontal=1;startSize=26;horizontalStack=0;resizeParent=1;resizeLast=0;collapsible=1;marginBottom=0;rounded=0;shadow=0;strokeWidth=1;fontColor=#000000;" parent="WIyWlLk6GJQsqaUBKTNV-1" vertex="1">
          <mxGeometry x="-246" y="-460" width="220" height="140" as="geometry">
            <mxRectangle x="550" y="140" width="160" height="26" as="alternateBounds" />
          </mxGeometry>
        </mxCell>
        <mxCell id="X5nv6v5gJ5mk2as4WkqO-9" value="-codigo: int" style="text;align=left;verticalAlign=top;spacingLeft=4;spacingRight=4;overflow=hidden;rotatable=0;points=[[0,0.5],[1,0.5]];portConstraint=eastwest;rounded=0;shadow=0;html=0;fontColor=#000000;" parent="X5nv6v5gJ5mk2as4WkqO-7" vertex="1">
          <mxGeometry y="26" width="220" height="26" as="geometry" />
        </mxCell>
        <mxCell id="X5nv6v5gJ5mk2as4WkqO-8" value="-nombre:String" style="text;align=left;verticalAlign=top;spacingLeft=4;spacingRight=4;overflow=hidden;rotatable=0;points=[[0,0.5],[1,0.5]];portConstraint=eastwest;fontColor=#000000;" parent="X5nv6v5gJ5mk2as4WkqO-7" vertex="1">
          <mxGeometry y="52" width="220" height="26" as="geometry" />
        </mxCell>
        <mxCell id="X5nv6v5gJ5mk2as4WkqO-14" value="-descripcion:String" style="text;align=left;verticalAlign=top;spacingLeft=4;spacingRight=4;overflow=hidden;rotatable=0;points=[[0,0.5],[1,0.5]];portConstraint=eastwest;rounded=0;shadow=0;html=0;fontColor=#000000;" parent="X5nv6v5gJ5mk2as4WkqO-7" vertex="1">
          <mxGeometry y="78" width="220" height="26" as="geometry" />
        </mxCell>
        <mxCell id="X5nv6v5gJ5mk2as4WkqO-15" value="-caracteristicas_almacenamiento:String" style="text;align=left;verticalAlign=top;spacingLeft=4;spacingRight=4;overflow=hidden;rotatable=0;points=[[0,0.5],[1,0.5]];portConstraint=eastwest;rounded=0;shadow=0;html=0;fontColor=#000000;" parent="X5nv6v5gJ5mk2as4WkqO-7" vertex="1">
          <mxGeometry y="104" width="220" height="26" as="geometry" />
        </mxCell>
        <mxCell id="X5nv6v5gJ5mk2as4WkqO-22" value="1" style="text;html=1;align=center;verticalAlign=middle;resizable=0;points=[];autosize=1;strokeColor=none;fillColor=none;fontColor=#000000;" parent="WIyWlLk6GJQsqaUBKTNV-1" vertex="1">
          <mxGeometry x="-16" y="-396" width="30" height="30" as="geometry" />
        </mxCell>
        <mxCell id="X5nv6v5gJ5mk2as4WkqO-23" value="0...*" style="text;html=1;align=center;verticalAlign=middle;resizable=0;points=[];autosize=1;strokeColor=none;fillColor=none;fontColor=#000000;" parent="WIyWlLk6GJQsqaUBKTNV-1" vertex="1">
          <mxGeometry x="34" y="-336" width="40" height="30" as="geometry" />
        </mxCell>
        <mxCell id="X5nv6v5gJ5mk2as4WkqO-25" value="" style="endArrow=classic;startArrow=classic;html=1;rounded=0;edgeStyle=orthogonalEdgeStyle;fontColor=#000000;" parent="WIyWlLk6GJQsqaUBKTNV-1" source="X5nv6v5gJ5mk2as4WkqO-7" target="zkfFHV4jXpPFQw0GAbJ--17" edge="1">
          <mxGeometry width="50" height="50" relative="1" as="geometry">
            <mxPoint x="494" y="-256" as="sourcePoint" />
            <mxPoint x="544" y="-306" as="targetPoint" />
          </mxGeometry>
        </mxCell>
        <mxCell id="X5nv6v5gJ5mk2as4WkqO-26" value="Sucursal" style="swimlane;fontStyle=1;align=center;verticalAlign=top;childLayout=stackLayout;horizontal=1;startSize=26;horizontalStack=0;resizeParent=1;resizeLast=0;collapsible=1;marginBottom=0;rounded=0;shadow=0;strokeWidth=1;fontColor=#000000;" parent="WIyWlLk6GJQsqaUBKTNV-1" vertex="1">
          <mxGeometry x="820" y="53" width="140" height="130" as="geometry">
            <mxRectangle x="550" y="140" width="160" height="26" as="alternateBounds" />
          </mxGeometry>
        </mxCell>
        <mxCell id="X5nv6v5gJ5mk2as4WkqO-28" value="-nombre:String" style="text;align=left;verticalAlign=top;spacingLeft=4;spacingRight=4;overflow=hidden;rotatable=0;points=[[0,0.5],[1,0.5]];portConstraint=eastwest;fontColor=#000000;" parent="X5nv6v5gJ5mk2as4WkqO-26" vertex="1">
          <mxGeometry y="26" width="140" height="26" as="geometry" />
        </mxCell>
        <mxCell id="X5nv6v5gJ5mk2as4WkqO-27" value="-telefono: String" style="text;align=left;verticalAlign=top;spacingLeft=4;spacingRight=4;overflow=hidden;rotatable=0;points=[[0,0.5],[1,0.5]];portConstraint=eastwest;rounded=0;shadow=0;html=0;fontColor=#000000;" parent="X5nv6v5gJ5mk2as4WkqO-26" vertex="1">
          <mxGeometry y="52" width="140" height="26" as="geometry" />
        </mxCell>
        <mxCell id="X5nv6v5gJ5mk2as4WkqO-30" value="-direccion:String" style="text;align=left;verticalAlign=top;spacingLeft=4;spacingRight=4;overflow=hidden;rotatable=0;points=[[0,0.5],[1,0.5]];portConstraint=eastwest;rounded=0;shadow=0;html=0;fontColor=#000000;" parent="X5nv6v5gJ5mk2as4WkqO-26" vertex="1">
          <mxGeometry y="78" width="140" height="22" as="geometry" />
        </mxCell>
        <mxCell id="Ump_3bpm_IfCM5Z30n2z-0" value="-tamano : Double" style="text;align=left;verticalAlign=top;spacingLeft=4;spacingRight=4;overflow=hidden;rotatable=0;points=[[0,0.5],[1,0.5]];portConstraint=eastwest;rounded=0;shadow=0;html=0;fontColor=#000000;" parent="X5nv6v5gJ5mk2as4WkqO-26" vertex="1">
          <mxGeometry y="100" width="140" height="22" as="geometry" />
        </mxCell>
        <mxCell id="X5nv6v5gJ5mk2as4WkqO-33" value="Ciudad" style="swimlane;fontStyle=1;align=center;verticalAlign=top;childLayout=stackLayout;horizontal=1;startSize=26;horizontalStack=0;resizeParent=1;resizeLast=0;collapsible=1;marginBottom=0;rounded=0;shadow=0;strokeWidth=1;fontColor=#000000;" parent="WIyWlLk6GJQsqaUBKTNV-1" vertex="1">
          <mxGeometry x="1130" y="43" width="100" height="78" as="geometry">
            <mxRectangle x="550" y="140" width="160" height="26" as="alternateBounds" />
          </mxGeometry>
        </mxCell>
        <mxCell id="X5nv6v5gJ5mk2as4WkqO-35" value="-nombre:String" style="text;align=left;verticalAlign=top;spacingLeft=4;spacingRight=4;overflow=hidden;rotatable=0;points=[[0,0.5],[1,0.5]];portConstraint=eastwest;fontColor=#000000;" parent="X5nv6v5gJ5mk2as4WkqO-33" vertex="1">
          <mxGeometry y="26" width="100" height="26" as="geometry" />
        </mxCell>
        <mxCell id="oqvjpb8TwHMiU-xqvSP--1" value="-codigo:int&#xa;&#xa;" style="text;align=left;verticalAlign=top;spacingLeft=4;spacingRight=4;overflow=hidden;rotatable=0;points=[[0,0.5],[1,0.5]];portConstraint=eastwest;fontColor=#000000;" parent="X5nv6v5gJ5mk2as4WkqO-33" vertex="1">
          <mxGeometry y="52" width="100" height="26" as="geometry" />
        </mxCell>
        <mxCell id="X5nv6v5gJ5mk2as4WkqO-49" value="1" style="text;html=1;align=center;verticalAlign=middle;resizable=0;points=[];autosize=1;strokeColor=none;fillColor=none;fontColor=#000000;" parent="WIyWlLk6GJQsqaUBKTNV-1" vertex="1">
          <mxGeometry x="1100" y="43" width="30" height="30" as="geometry" />
        </mxCell>
        <mxCell id="X5nv6v5gJ5mk2as4WkqO-50" value="0...*" style="text;html=1;align=center;verticalAlign=middle;resizable=0;points=[];autosize=1;strokeColor=none;fillColor=none;fontColor=#000000;" parent="WIyWlLk6GJQsqaUBKTNV-1" vertex="1">
          <mxGeometry x="960" y="81" width="40" height="30" as="geometry" />
        </mxCell>
        <mxCell id="X5nv6v5gJ5mk2as4WkqO-51" value="" style="endArrow=classic;startArrow=classic;html=1;rounded=0;edgeStyle=orthogonalEdgeStyle;fontColor=#000000;" parent="WIyWlLk6GJQsqaUBKTNV-1" source="X5nv6v5gJ5mk2as4WkqO-26" target="X5nv6v5gJ5mk2as4WkqO-33" edge="1">
          <mxGeometry width="50" height="50" relative="1" as="geometry">
            <mxPoint x="1030" y="343" as="sourcePoint" />
            <mxPoint x="1080" y="293" as="targetPoint" />
          </mxGeometry>
        </mxCell>
        <mxCell id="X5nv6v5gJ5mk2as4WkqO-53" value="Bodega" style="swimlane;fontStyle=1;align=center;verticalAlign=top;childLayout=stackLayout;horizontal=1;startSize=26;horizontalStack=0;resizeParent=1;resizeLast=0;collapsible=1;marginBottom=0;rounded=0;shadow=0;strokeWidth=1;fontColor=#000000;" parent="WIyWlLk6GJQsqaUBKTNV-1" vertex="1">
          <mxGeometry x="480" y="-7" width="180" height="78" as="geometry">
            <mxRectangle x="550" y="140" width="160" height="26" as="alternateBounds" />
          </mxGeometry>
        </mxCell>
        <mxCell id="X5nv6v5gJ5mk2as4WkqO-54" value="-nombre:String" style="text;align=left;verticalAlign=top;spacingLeft=4;spacingRight=4;overflow=hidden;rotatable=0;points=[[0,0.5],[1,0.5]];portConstraint=eastwest;fontColor=#000000;" parent="X5nv6v5gJ5mk2as4WkqO-53" vertex="1">
          <mxGeometry y="26" width="180" height="26" as="geometry" />
        </mxCell>
        <mxCell id="X5nv6v5gJ5mk2as4WkqO-55" value="-tamano: Double" style="text;align=left;verticalAlign=top;spacingLeft=4;spacingRight=4;overflow=hidden;rotatable=0;points=[[0,0.5],[1,0.5]];portConstraint=eastwest;rounded=0;shadow=0;html=0;fontColor=#000000;" parent="X5nv6v5gJ5mk2as4WkqO-53" vertex="1">
          <mxGeometry y="52" width="180" height="26" as="geometry" />
        </mxCell>
        <mxCell id="X5nv6v5gJ5mk2as4WkqO-57" value="" style="endArrow=classic;startArrow=classic;html=1;rounded=0;edgeStyle=orthogonalEdgeStyle;exitX=0.989;exitY=0.163;exitDx=0;exitDy=0;fontColor=#000000;exitPerimeter=0;" parent="WIyWlLk6GJQsqaUBKTNV-1" source="X5nv6v5gJ5mk2as4WkqO-55" target="X5nv6v5gJ5mk2as4WkqO-26" edge="1">
          <mxGeometry width="50" height="50" relative="1" as="geometry">
            <mxPoint x="660" y="84" as="sourcePoint" />
            <mxPoint x="1080" y="293" as="targetPoint" />
          </mxGeometry>
        </mxCell>
        <mxCell id="Ump_3bpm_IfCM5Z30n2z-3" value="1..*" style="edgeLabel;html=1;align=center;verticalAlign=middle;resizable=0;points=[];fontColor=#000000;" parent="X5nv6v5gJ5mk2as4WkqO-57" vertex="1" connectable="0">
          <mxGeometry x="-0.8049" y="1" relative="1" as="geometry">
            <mxPoint as="offset" />
          </mxGeometry>
        </mxCell>
        <mxCell id="di9bYmcxDt5mD3mjxTbu-0" value="1" style="edgeLabel;html=1;align=center;verticalAlign=middle;resizable=0;points=[];" parent="X5nv6v5gJ5mk2as4WkqO-57" vertex="1" connectable="0">
          <mxGeometry x="0.8229" y="-1" relative="1" as="geometry">
            <mxPoint as="offset" />
          </mxGeometry>
        </mxCell>
        <mxCell id="X5nv6v5gJ5mk2as4WkqO-63" value="Proveedor" style="swimlane;fontStyle=1;align=center;verticalAlign=top;childLayout=stackLayout;horizontal=1;startSize=26;horizontalStack=0;resizeParent=1;resizeLast=0;collapsible=1;marginBottom=0;rounded=0;shadow=0;strokeWidth=1;fontColor=#000000;" parent="WIyWlLk6GJQsqaUBKTNV-1" vertex="1">
          <mxGeometry x="690" y="-530" width="180" height="204" as="geometry">
            <mxRectangle x="550" y="140" width="160" height="26" as="alternateBounds" />
          </mxGeometry>
        </mxCell>
        <mxCell id="X5nv6v5gJ5mk2as4WkqO-65" value="-NIT: String" style="text;align=left;verticalAlign=top;spacingLeft=4;spacingRight=4;overflow=hidden;rotatable=0;points=[[0,0.5],[1,0.5]];portConstraint=eastwest;rounded=0;shadow=0;html=0;fontColor=#000000;" parent="X5nv6v5gJ5mk2as4WkqO-63" vertex="1">
          <mxGeometry y="26" width="180" height="26" as="geometry" />
        </mxCell>
        <mxCell id="X5nv6v5gJ5mk2as4WkqO-64" value="-nombre:String" style="text;align=left;verticalAlign=top;spacingLeft=4;spacingRight=4;overflow=hidden;rotatable=0;points=[[0,0.5],[1,0.5]];portConstraint=eastwest;fontColor=#000000;" parent="X5nv6v5gJ5mk2as4WkqO-63" vertex="1">
          <mxGeometry y="52" width="180" height="26" as="geometry" />
        </mxCell>
        <mxCell id="X5nv6v5gJ5mk2as4WkqO-66" value="-direccion:String" style="text;align=left;verticalAlign=top;spacingLeft=4;spacingRight=4;overflow=hidden;rotatable=0;points=[[0,0.5],[1,0.5]];portConstraint=eastwest;rounded=0;shadow=0;html=0;fontColor=#000000;" parent="X5nv6v5gJ5mk2as4WkqO-63" vertex="1">
          <mxGeometry y="78" width="180" height="22" as="geometry" />
        </mxCell>
        <mxCell id="X5nv6v5gJ5mk2as4WkqO-67" value="-nombre_personac: String" style="text;align=left;verticalAlign=top;spacingLeft=4;spacingRight=4;overflow=hidden;rotatable=0;points=[[0,0.5],[1,0.5]];portConstraint=eastwest;rounded=0;shadow=0;html=0;fontColor=#000000;" parent="X5nv6v5gJ5mk2as4WkqO-63" vertex="1">
          <mxGeometry y="100" width="180" height="26" as="geometry" />
        </mxCell>
        <mxCell id="X5nv6v5gJ5mk2as4WkqO-68" value="-telefono_personac: String" style="text;align=left;verticalAlign=top;spacingLeft=4;spacingRight=4;overflow=hidden;rotatable=0;points=[[0,0.5],[1,0.5]];portConstraint=eastwest;rounded=0;shadow=0;html=0;fontColor=#000000;" parent="X5nv6v5gJ5mk2as4WkqO-63" vertex="1">
          <mxGeometry y="126" width="180" height="26" as="geometry" />
        </mxCell>
        <mxCell id="X5nv6v5gJ5mk2as4WkqO-73" value="" style="endArrow=classic;startArrow=classic;html=1;rounded=0;edgeStyle=orthogonalEdgeStyle;fontColor=#000000;" parent="WIyWlLk6GJQsqaUBKTNV-1" source="X5nv6v5gJ5mk2as4WkqO-26" edge="1">
          <mxGeometry width="50" height="50" relative="1" as="geometry">
            <mxPoint x="610" y="-90" as="sourcePoint" />
            <mxPoint x="770" y="-320" as="targetPoint" />
            <Array as="points">
              <mxPoint x="890" y="-185" />
              <mxPoint x="760" y="-185" />
              <mxPoint x="760" y="-310" />
            </Array>
          </mxGeometry>
        </mxCell>
        <mxCell id="X5nv6v5gJ5mk2as4WkqO-74" value="1...*" style="text;html=1;align=center;verticalAlign=middle;resizable=0;points=[];autosize=1;strokeColor=none;fillColor=none;fontColor=#000000;" parent="WIyWlLk6GJQsqaUBKTNV-1" vertex="1">
          <mxGeometry x="800" y="-290" width="40" height="30" as="geometry" />
        </mxCell>
        <mxCell id="X5nv6v5gJ5mk2as4WkqO-75" value="0...*" style="text;html=1;align=center;verticalAlign=middle;resizable=0;points=[];autosize=1;strokeColor=none;fillColor=none;fontColor=#000000;" parent="WIyWlLk6GJQsqaUBKTNV-1" vertex="1">
          <mxGeometry x="890" y="23" width="40" height="30" as="geometry" />
        </mxCell>
        <mxCell id="X5nv6v5gJ5mk2as4WkqO-79" value="Pense que fechaEntregaEsperada sea un atributo el cual sera 0000/00/00 por predeterminado pero al hacer el metodo de solicitudDeReposicion&amp;nbsp; (en sucursal) se llene este atributo" style="shape=note;whiteSpace=wrap;html=1;backgroundOutline=1;darkOpacity=0.05;strokeColor=#000000;fillColor=#33FFFF;fontColor=#000000;" parent="WIyWlLk6GJQsqaUBKTNV-1" vertex="1">
          <mxGeometry x="1220" y="-624" width="190" height="158" as="geometry" />
        </mxCell>
        <mxCell id="X5nv6v5gJ5mk2as4WkqO-91" value="Recepcion" style="swimlane;fontStyle=1;align=center;verticalAlign=top;childLayout=stackLayout;horizontal=1;startSize=26;horizontalStack=0;resizeParent=1;resizeLast=0;collapsible=1;marginBottom=0;rounded=0;shadow=0;strokeWidth=1;fontColor=#000000;" parent="WIyWlLk6GJQsqaUBKTNV-1" vertex="1">
          <mxGeometry x="480" y="-290" width="180" height="104" as="geometry">
            <mxRectangle x="550" y="140" width="160" height="26" as="alternateBounds" />
          </mxGeometry>
        </mxCell>
        <mxCell id="X5nv6v5gJ5mk2as4WkqO-97" value="- fecha_recepcion: Date" style="text;align=left;verticalAlign=top;spacingLeft=4;spacingRight=4;overflow=hidden;rotatable=0;points=[[0,0.5],[1,0.5]];portConstraint=eastwest;rounded=0;shadow=0;html=0;fontColor=#000000;" parent="X5nv6v5gJ5mk2as4WkqO-91" vertex="1">
          <mxGeometry y="26" width="180" height="26" as="geometry" />
        </mxCell>
        <mxCell id="X5nv6v5gJ5mk2as4WkqO-100" value="" style="endArrow=classic;startArrow=classic;html=1;rounded=0;edgeStyle=orthogonalEdgeStyle;fontColor=#000000;" parent="WIyWlLk6GJQsqaUBKTNV-1" source="X5nv6v5gJ5mk2as4WkqO-91" target="X5nv6v5gJ5mk2as4WkqO-53" edge="1">
          <mxGeometry width="50" height="50" relative="1" as="geometry">
            <mxPoint x="550" y="-378" as="sourcePoint" />
            <mxPoint x="680" y="-393" as="targetPoint" />
            <Array as="points">
              <mxPoint x="630" y="-60" />
              <mxPoint x="630" y="-60" />
            </Array>
          </mxGeometry>
        </mxCell>
        <mxCell id="Ump_3bpm_IfCM5Z30n2z-91" value="1..*" style="edgeLabel;html=1;align=center;verticalAlign=middle;resizable=0;points=[];fontColor=#000000;" parent="X5nv6v5gJ5mk2as4WkqO-100" vertex="1" connectable="0">
          <mxGeometry x="-0.8745" y="-1" relative="1" as="geometry">
            <mxPoint as="offset" />
          </mxGeometry>
        </mxCell>
        <mxCell id="Ump_3bpm_IfCM5Z30n2z-92" value="1" style="edgeLabel;html=1;align=center;verticalAlign=middle;resizable=0;points=[];fontColor=#000000;" parent="X5nv6v5gJ5mk2as4WkqO-100" vertex="1" connectable="0">
          <mxGeometry x="0.8333" relative="1" as="geometry">
            <mxPoint as="offset" />
          </mxGeometry>
        </mxCell>
        <mxCell id="Ump_3bpm_IfCM5Z30n2z-4" value="&lt;font&gt;&lt;b&gt;ProductoBodega&lt;/b&gt;&lt;/font&gt;" style="swimlane;fontStyle=0;childLayout=stackLayout;horizontal=1;startSize=26;fillColor=none;horizontalStack=0;resizeParent=1;resizeParentMax=0;resizeLast=0;collapsible=1;marginBottom=0;whiteSpace=wrap;html=1;fontColor=#000000;" parent="WIyWlLk6GJQsqaUBKTNV-1" vertex="1">
          <mxGeometry x="260" y="-19" width="160" height="104" as="geometry" />
        </mxCell>
        <mxCell id="Ump_3bpm_IfCM5Z30n2z-5" value="- cantidad_existente: int" style="text;strokeColor=none;fillColor=none;align=left;verticalAlign=top;spacingLeft=4;spacingRight=4;overflow=hidden;rotatable=0;points=[[0,0.5],[1,0.5]];portConstraint=eastwest;whiteSpace=wrap;html=1;fontColor=#000000;" parent="Ump_3bpm_IfCM5Z30n2z-4" vertex="1">
          <mxGeometry y="26" width="160" height="26" as="geometry" />
        </mxCell>
        <mxCell id="Ump_3bpm_IfCM5Z30n2z-6" value="/ costo_promedio: Double&amp;nbsp;" style="text;strokeColor=none;fillColor=none;align=left;verticalAlign=top;spacingLeft=4;spacingRight=4;overflow=hidden;rotatable=0;points=[[0,0.5],[1,0.5]];portConstraint=eastwest;whiteSpace=wrap;html=1;fontColor=#000000;" parent="Ump_3bpm_IfCM5Z30n2z-4" vertex="1">
          <mxGeometry y="52" width="160" height="26" as="geometry" />
        </mxCell>
        <mxCell id="oqvjpb8TwHMiU-xqvSP--0" value="-capacidad bodega: int" style="text;align=left;verticalAlign=top;spacingLeft=4;spacingRight=4;overflow=hidden;rotatable=0;points=[[0,0.5],[1,0.5]];portConstraint=eastwest;rounded=0;shadow=0;html=0;fontColor=#000000;" parent="Ump_3bpm_IfCM5Z30n2z-4" vertex="1">
          <mxGeometry y="78" width="160" height="26" as="geometry" />
        </mxCell>
        <mxCell id="Ump_3bpm_IfCM5Z30n2z-10" value="" style="endArrow=none;html=1;edgeStyle=orthogonalEdgeStyle;rounded=0;exitX=1;exitY=0.5;exitDx=0;exitDy=0;entryX=0.5;entryY=0;entryDx=0;entryDy=0;fontColor=#000000;" parent="WIyWlLk6GJQsqaUBKTNV-1" source="X5nv6v5gJ5mk2as4WkqO-6" target="Ump_3bpm_IfCM5Z30n2z-4" edge="1">
          <mxGeometry relative="1" as="geometry">
            <mxPoint x="320" y="-230" as="sourcePoint" />
            <mxPoint x="480" y="-230" as="targetPoint" />
          </mxGeometry>
        </mxCell>
        <mxCell id="Ump_3bpm_IfCM5Z30n2z-11" value="1..*" style="edgeLabel;resizable=0;html=1;align=left;verticalAlign=bottom;fontColor=#000000;" parent="Ump_3bpm_IfCM5Z30n2z-10" connectable="0" vertex="1">
          <mxGeometry x="-1" relative="1" as="geometry" />
        </mxCell>
        <mxCell id="Ump_3bpm_IfCM5Z30n2z-12" value="1..*" style="edgeLabel;resizable=0;html=1;align=right;verticalAlign=bottom;fontColor=#000000;" parent="Ump_3bpm_IfCM5Z30n2z-10" connectable="0" vertex="1">
          <mxGeometry x="1" relative="1" as="geometry" />
        </mxCell>
        <mxCell id="Ump_3bpm_IfCM5Z30n2z-13" value="" style="endArrow=none;html=1;edgeStyle=orthogonalEdgeStyle;rounded=0;exitX=1.025;exitY=-0.138;exitDx=0;exitDy=0;exitPerimeter=0;fontColor=#000000;entryX=0.033;entryY=-0.144;entryDx=0;entryDy=0;entryPerimeter=0;" parent="WIyWlLk6GJQsqaUBKTNV-1" source="Ump_3bpm_IfCM5Z30n2z-6" target="X5nv6v5gJ5mk2as4WkqO-54" edge="1">
          <mxGeometry relative="1" as="geometry">
            <mxPoint x="420" y="82" as="sourcePoint" />
            <mxPoint x="480" y="30" as="targetPoint" />
          </mxGeometry>
        </mxCell>
        <mxCell id="Ump_3bpm_IfCM5Z30n2z-14" value="1..*" style="edgeLabel;resizable=0;html=1;align=left;verticalAlign=bottom;fontColor=#000000;" parent="Ump_3bpm_IfCM5Z30n2z-13" connectable="0" vertex="1">
          <mxGeometry x="-1" relative="1" as="geometry">
            <mxPoint y="21" as="offset" />
          </mxGeometry>
        </mxCell>
        <mxCell id="Ump_3bpm_IfCM5Z30n2z-15" value="1" style="edgeLabel;resizable=0;html=1;align=right;verticalAlign=bottom;fontColor=#000000;" parent="Ump_3bpm_IfCM5Z30n2z-13" connectable="0" vertex="1">
          <mxGeometry x="1" relative="1" as="geometry">
            <mxPoint y="-32" as="offset" />
          </mxGeometry>
        </mxCell>
        <mxCell id="Ump_3bpm_IfCM5Z30n2z-33" value="&lt;b&gt;OrdenCompra&lt;/b&gt;" style="swimlane;fontStyle=0;childLayout=stackLayout;horizontal=1;startSize=26;fillColor=none;horizontalStack=0;resizeParent=1;resizeParentMax=0;resizeLast=0;collapsible=1;marginBottom=0;whiteSpace=wrap;html=1;fontColor=#000000;" parent="WIyWlLk6GJQsqaUBKTNV-1" vertex="1">
          <mxGeometry x="1000" y="-381" width="210" height="130" as="geometry" />
        </mxCell>
        <mxCell id="Ump_3bpm_IfCM5Z30n2z-18" value="-precio_acordado. Double" style="text;strokeColor=none;fillColor=none;align=left;verticalAlign=top;spacingLeft=4;spacingRight=4;overflow=hidden;rotatable=0;points=[[0,0.5],[1,0.5]];portConstraint=eastwest;whiteSpace=wrap;html=1;fontColor=#000000;" parent="Ump_3bpm_IfCM5Z30n2z-33" vertex="1">
          <mxGeometry y="26" width="210" height="26" as="geometry" />
        </mxCell>
        <mxCell id="Ump_3bpm_IfCM5Z30n2z-40" value="- fechaEntregaEsperada: Date" style="text;strokeColor=none;fillColor=none;align=left;verticalAlign=top;spacingLeft=4;spacingRight=4;overflow=hidden;rotatable=0;points=[[0,0.5],[1,0.5]];portConstraint=eastwest;whiteSpace=wrap;html=1;fontColor=#000000;" parent="Ump_3bpm_IfCM5Z30n2z-33" vertex="1">
          <mxGeometry y="52" width="210" height="26" as="geometry" />
        </mxCell>
        <mxCell id="Ump_3bpm_IfCM5Z30n2z-39" value="- estado: String" style="text;strokeColor=none;fillColor=none;align=left;verticalAlign=top;spacingLeft=4;spacingRight=4;overflow=hidden;rotatable=0;points=[[0,0.5],[1,0.5]];portConstraint=eastwest;whiteSpace=wrap;html=1;fontColor=#000000;" parent="Ump_3bpm_IfCM5Z30n2z-33" vertex="1">
          <mxGeometry y="78" width="210" height="26" as="geometry" />
        </mxCell>
        <mxCell id="oqvjpb8TwHMiU-xqvSP--9" value="- fechaCreación: Date" style="text;strokeColor=none;fillColor=none;align=left;verticalAlign=top;spacingLeft=4;spacingRight=4;overflow=hidden;rotatable=0;points=[[0,0.5],[1,0.5]];portConstraint=eastwest;whiteSpace=wrap;html=1;fontColor=#000000;" parent="Ump_3bpm_IfCM5Z30n2z-33" vertex="1">
          <mxGeometry y="104" width="210" height="26" as="geometry" />
        </mxCell>
        <mxCell id="Ump_3bpm_IfCM5Z30n2z-44" value="" style="endArrow=none;html=1;edgeStyle=orthogonalEdgeStyle;rounded=0;exitX=0.858;exitY=-0.011;exitDx=0;exitDy=0;exitPerimeter=0;entryX=0.011;entryY=0.243;entryDx=0;entryDy=0;entryPerimeter=0;fontColor=#000000;" parent="WIyWlLk6GJQsqaUBKTNV-1" source="X5nv6v5gJ5mk2as4WkqO-26" target="Ump_3bpm_IfCM5Z30n2z-39" edge="1">
          <mxGeometry relative="1" as="geometry">
            <mxPoint x="980" y="-170" as="sourcePoint" />
            <mxPoint x="1140" y="-170" as="targetPoint" />
          </mxGeometry>
        </mxCell>
        <mxCell id="Ump_3bpm_IfCM5Z30n2z-45" value="1" style="edgeLabel;resizable=0;html=1;align=left;verticalAlign=bottom;fontColor=#000000;" parent="Ump_3bpm_IfCM5Z30n2z-44" connectable="0" vertex="1">
          <mxGeometry x="-1" relative="1" as="geometry" />
        </mxCell>
        <mxCell id="Ump_3bpm_IfCM5Z30n2z-46" value="1...*" style="edgeLabel;resizable=0;html=1;align=right;verticalAlign=bottom;fontColor=#000000;" parent="Ump_3bpm_IfCM5Z30n2z-44" connectable="0" vertex="1">
          <mxGeometry x="1" relative="1" as="geometry" />
        </mxCell>
        <mxCell id="Ump_3bpm_IfCM5Z30n2z-47" value="" style="endArrow=none;html=1;edgeStyle=orthogonalEdgeStyle;rounded=0;exitX=1;exitY=0.5;exitDx=0;exitDy=0;entryX=0.25;entryY=0;entryDx=0;entryDy=0;fontColor=#000000;" parent="WIyWlLk6GJQsqaUBKTNV-1" source="X5nv6v5gJ5mk2as4WkqO-66" target="Ump_3bpm_IfCM5Z30n2z-33" edge="1">
          <mxGeometry relative="1" as="geometry">
            <mxPoint x="910" y="-420" as="sourcePoint" />
            <mxPoint x="1070" y="-420" as="targetPoint" />
          </mxGeometry>
        </mxCell>
        <mxCell id="Ump_3bpm_IfCM5Z30n2z-48" value="1" style="edgeLabel;resizable=0;html=1;align=left;verticalAlign=bottom;fontColor=#000000;" parent="Ump_3bpm_IfCM5Z30n2z-47" connectable="0" vertex="1">
          <mxGeometry x="-1" relative="1" as="geometry" />
        </mxCell>
        <mxCell id="Ump_3bpm_IfCM5Z30n2z-49" value="1..*" style="edgeLabel;resizable=0;html=1;align=right;verticalAlign=bottom;fontColor=#000000;" parent="Ump_3bpm_IfCM5Z30n2z-47" connectable="0" vertex="1">
          <mxGeometry x="1" relative="1" as="geometry" />
        </mxCell>
        <mxCell id="Ump_3bpm_IfCM5Z30n2z-50" value="&lt;font&gt;&lt;b&gt;ProductoOrden&lt;/b&gt;&lt;/font&gt;" style="swimlane;fontStyle=0;childLayout=stackLayout;horizontal=1;startSize=26;fillColor=none;horizontalStack=0;resizeParent=1;resizeParentMax=0;resizeLast=0;collapsible=1;marginBottom=0;whiteSpace=wrap;html=1;fontColor=#000000;" parent="WIyWlLk6GJQsqaUBKTNV-1" vertex="1">
          <mxGeometry x="420" y="-130" width="140" height="78" as="geometry" />
        </mxCell>
        <mxCell id="Ump_3bpm_IfCM5Z30n2z-51" value="-cantidad_solicitada: int" style="text;strokeColor=none;fillColor=none;align=left;verticalAlign=top;spacingLeft=4;spacingRight=4;overflow=hidden;rotatable=0;points=[[0,0.5],[1,0.5]];portConstraint=eastwest;whiteSpace=wrap;html=1;fontColor=#000000;" parent="Ump_3bpm_IfCM5Z30n2z-50" vertex="1">
          <mxGeometry y="26" width="140" height="26" as="geometry" />
        </mxCell>
        <mxCell id="Ump_3bpm_IfCM5Z30n2z-52" value="- precioAcordad: Double" style="text;strokeColor=none;fillColor=none;align=left;verticalAlign=top;spacingLeft=4;spacingRight=4;overflow=hidden;rotatable=0;points=[[0,0.5],[1,0.5]];portConstraint=eastwest;whiteSpace=wrap;html=1;fontColor=#000000;" parent="Ump_3bpm_IfCM5Z30n2z-50" vertex="1">
          <mxGeometry y="52" width="140" height="26" as="geometry" />
        </mxCell>
        <mxCell id="Ump_3bpm_IfCM5Z30n2z-60" value="" style="endArrow=none;html=1;edgeStyle=orthogonalEdgeStyle;rounded=0;exitX=1.007;exitY=0.783;exitDx=0;exitDy=0;exitPerimeter=0;entryX=0.006;entryY=-0.026;entryDx=0;entryDy=0;fontColor=#000000;entryPerimeter=0;" parent="WIyWlLk6GJQsqaUBKTNV-1" source="Ump_3bpm_IfCM5Z30n2z-51" target="Ump_3bpm_IfCM5Z30n2z-40" edge="1">
          <mxGeometry relative="1" as="geometry">
            <mxPoint x="810" y="-260" as="sourcePoint" />
            <mxPoint x="990" y="-316" as="targetPoint" />
            <Array as="points">
              <mxPoint x="820" y="-84" />
              <mxPoint x="820" y="-316" />
              <mxPoint x="1001" y="-316" />
            </Array>
          </mxGeometry>
        </mxCell>
        <mxCell id="Ump_3bpm_IfCM5Z30n2z-61" value="1..*" style="edgeLabel;resizable=0;html=1;align=left;verticalAlign=bottom;fontColor=#000000;" parent="Ump_3bpm_IfCM5Z30n2z-60" connectable="0" vertex="1">
          <mxGeometry x="-1" relative="1" as="geometry" />
        </mxCell>
        <mxCell id="Ump_3bpm_IfCM5Z30n2z-62" value="1" style="edgeLabel;resizable=0;html=1;align=right;verticalAlign=bottom;fontColor=#000000;" parent="Ump_3bpm_IfCM5Z30n2z-60" connectable="0" vertex="1">
          <mxGeometry x="1" relative="1" as="geometry">
            <mxPoint x="-10" as="offset" />
          </mxGeometry>
        </mxCell>
        <mxCell id="Ump_3bpm_IfCM5Z30n2z-63" value="" style="endArrow=none;html=1;edgeStyle=orthogonalEdgeStyle;rounded=0;entryX=0;entryY=0.5;entryDx=0;entryDy=0;exitX=1;exitY=0.5;exitDx=0;exitDy=0;fontColor=#000000;" parent="WIyWlLk6GJQsqaUBKTNV-1" source="zkfFHV4jXpPFQw0GAbJ--22" target="Ump_3bpm_IfCM5Z30n2z-51" edge="1">
          <mxGeometry relative="1" as="geometry">
            <mxPoint x="520" y="-290" as="sourcePoint" />
            <mxPoint x="680" y="-290" as="targetPoint" />
          </mxGeometry>
        </mxCell>
        <mxCell id="Ump_3bpm_IfCM5Z30n2z-64" value="1" style="edgeLabel;resizable=0;html=1;align=left;verticalAlign=bottom;fontColor=#000000;" parent="Ump_3bpm_IfCM5Z30n2z-63" connectable="0" vertex="1">
          <mxGeometry x="-1" relative="1" as="geometry" />
        </mxCell>
        <mxCell id="Ump_3bpm_IfCM5Z30n2z-65" value="1..*" style="edgeLabel;resizable=0;html=1;align=right;verticalAlign=bottom;fontColor=#000000;" parent="Ump_3bpm_IfCM5Z30n2z-63" connectable="0" vertex="1">
          <mxGeometry x="1" relative="1" as="geometry" />
        </mxCell>
        <mxCell id="Ump_3bpm_IfCM5Z30n2z-67" value="InfoRecepcion" style="swimlane;fontStyle=1;align=center;verticalAlign=top;childLayout=stackLayout;horizontal=1;startSize=26;horizontalStack=0;resizeParent=1;resizeLast=0;collapsible=1;marginBottom=0;rounded=0;shadow=0;strokeWidth=1;fontColor=#000000;" parent="WIyWlLk6GJQsqaUBKTNV-1" vertex="1">
          <mxGeometry x="450" y="-424" width="180" height="78" as="geometry">
            <mxRectangle x="550" y="140" width="160" height="26" as="alternateBounds" />
          </mxGeometry>
        </mxCell>
        <mxCell id="Ump_3bpm_IfCM5Z30n2z-68" value="-cantidad_recibida: int" style="text;align=left;verticalAlign=top;spacingLeft=4;spacingRight=4;overflow=hidden;rotatable=0;points=[[0,0.5],[1,0.5]];portConstraint=eastwest;rounded=0;shadow=0;html=0;fontColor=#000000;" parent="Ump_3bpm_IfCM5Z30n2z-67" vertex="1">
          <mxGeometry y="26" width="180" height="26" as="geometry" />
        </mxCell>
        <mxCell id="Ump_3bpm_IfCM5Z30n2z-69" value="- costo_recibido: Double" style="text;align=left;verticalAlign=top;spacingLeft=4;spacingRight=4;overflow=hidden;rotatable=0;points=[[0,0.5],[1,0.5]];portConstraint=eastwest;rounded=0;shadow=0;html=0;fontColor=#000000;" parent="Ump_3bpm_IfCM5Z30n2z-67" vertex="1">
          <mxGeometry y="52" width="180" height="26" as="geometry" />
        </mxCell>
        <mxCell id="Ump_3bpm_IfCM5Z30n2z-70" value="" style="endArrow=none;html=1;edgeStyle=orthogonalEdgeStyle;rounded=0;exitX=0.291;exitY=1.026;exitDx=0;exitDy=0;exitPerimeter=0;entryX=0.25;entryY=0;entryDx=0;entryDy=0;fontColor=#000000;" parent="WIyWlLk6GJQsqaUBKTNV-1" source="Ump_3bpm_IfCM5Z30n2z-69" target="X5nv6v5gJ5mk2as4WkqO-91" edge="1">
          <mxGeometry relative="1" as="geometry">
            <mxPoint x="450" y="-280" as="sourcePoint" />
            <mxPoint x="610" y="-280" as="targetPoint" />
          </mxGeometry>
        </mxCell>
        <mxCell id="Ump_3bpm_IfCM5Z30n2z-71" value="1..*" style="edgeLabel;resizable=0;html=1;align=left;verticalAlign=bottom;fontColor=#000000;" parent="Ump_3bpm_IfCM5Z30n2z-70" connectable="0" vertex="1">
          <mxGeometry x="-1" relative="1" as="geometry">
            <mxPoint y="15" as="offset" />
          </mxGeometry>
        </mxCell>
        <mxCell id="Ump_3bpm_IfCM5Z30n2z-72" value="1" style="edgeLabel;resizable=0;html=1;align=right;verticalAlign=bottom;fontColor=#000000;" parent="Ump_3bpm_IfCM5Z30n2z-70" connectable="0" vertex="1">
          <mxGeometry x="1" relative="1" as="geometry" />
        </mxCell>
        <mxCell id="Ump_3bpm_IfCM5Z30n2z-73" value="" style="endArrow=none;html=1;edgeStyle=orthogonalEdgeStyle;rounded=0;exitX=0.75;exitY=0;exitDx=0;exitDy=0;entryX=0;entryY=0.5;entryDx=0;entryDy=0;fontColor=#000000;" parent="WIyWlLk6GJQsqaUBKTNV-1" source="X5nv6v5gJ5mk2as4WkqO-91" target="X5nv6v5gJ5mk2as4WkqO-66" edge="1">
          <mxGeometry relative="1" as="geometry">
            <mxPoint x="500" y="-440" as="sourcePoint" />
            <mxPoint x="660" y="-440" as="targetPoint" />
            <Array as="points">
              <mxPoint x="615" y="-320" />
              <mxPoint x="650" y="-320" />
              <mxPoint x="650" y="-427" />
            </Array>
          </mxGeometry>
        </mxCell>
        <mxCell id="Ump_3bpm_IfCM5Z30n2z-74" value="1..*" style="edgeLabel;resizable=0;html=1;align=left;verticalAlign=bottom;fontColor=#000000;" parent="Ump_3bpm_IfCM5Z30n2z-73" connectable="0" vertex="1">
          <mxGeometry x="-1" relative="1" as="geometry">
            <mxPoint as="offset" />
          </mxGeometry>
        </mxCell>
        <mxCell id="Ump_3bpm_IfCM5Z30n2z-75" value="1" style="edgeLabel;resizable=0;html=1;align=right;verticalAlign=bottom;fontColor=#000000;" parent="Ump_3bpm_IfCM5Z30n2z-73" connectable="0" vertex="1">
          <mxGeometry x="1" relative="1" as="geometry" />
        </mxCell>
        <mxCell id="Ump_3bpm_IfCM5Z30n2z-76" value="" style="endArrow=none;html=1;edgeStyle=orthogonalEdgeStyle;rounded=0;exitX=1;exitY=0.5;exitDx=0;exitDy=0;entryX=0.003;entryY=0.731;entryDx=0;entryDy=0;entryPerimeter=0;fontColor=#000000;" parent="WIyWlLk6GJQsqaUBKTNV-1" source="zkfFHV4jXpPFQw0GAbJ--19" target="Ump_3bpm_IfCM5Z30n2z-68" edge="1">
          <mxGeometry relative="1" as="geometry">
            <mxPoint x="320" y="-380" as="sourcePoint" />
            <mxPoint x="480" y="-380" as="targetPoint" />
          </mxGeometry>
        </mxCell>
        <mxCell id="Ump_3bpm_IfCM5Z30n2z-77" value="1" style="edgeLabel;resizable=0;html=1;align=left;verticalAlign=bottom;fontColor=#000000;" parent="Ump_3bpm_IfCM5Z30n2z-76" connectable="0" vertex="1">
          <mxGeometry x="-1" relative="1" as="geometry" />
        </mxCell>
        <mxCell id="Ump_3bpm_IfCM5Z30n2z-78" value="1..*" style="edgeLabel;resizable=0;html=1;align=right;verticalAlign=bottom;fontColor=#000000;" parent="Ump_3bpm_IfCM5Z30n2z-76" connectable="0" vertex="1">
          <mxGeometry x="1" relative="1" as="geometry" />
        </mxCell>
        <mxCell id="oqvjpb8TwHMiU-xqvSP--32" value="infoRecepcion" style="edgeLabel;html=1;align=center;verticalAlign=middle;resizable=0;points=[];" parent="Ump_3bpm_IfCM5Z30n2z-76" connectable="0" vertex="1">
          <mxGeometry x="-0.814" y="1" relative="1" as="geometry">
            <mxPoint x="10" y="12" as="offset" />
          </mxGeometry>
        </mxCell>
        <mxCell id="oqvjpb8TwHMiU-xqvSP--33" value="productos" style="edgeLabel;html=1;align=center;verticalAlign=middle;resizable=0;points=[];" parent="Ump_3bpm_IfCM5Z30n2z-76" connectable="0" vertex="1">
          <mxGeometry x="0.5227" y="-1" relative="1" as="geometry">
            <mxPoint as="offset" />
          </mxGeometry>
        </mxCell>
        <mxCell id="Ump_3bpm_IfCM5Z30n2z-79" value="&lt;font&gt;&lt;b&gt;NivelReorden&lt;/b&gt;&lt;/font&gt;" style="swimlane;fontStyle=0;childLayout=stackLayout;horizontal=1;startSize=26;fillColor=none;horizontalStack=0;resizeParent=1;resizeParentMax=0;resizeLast=0;collapsible=1;marginBottom=0;whiteSpace=wrap;html=1;fontColor=#000000;" parent="WIyWlLk6GJQsqaUBKTNV-1" vertex="1">
          <mxGeometry x="34" y="-80" width="156" height="52" as="geometry" />
        </mxCell>
        <mxCell id="Ump_3bpm_IfCM5Z30n2z-80" value="- nivel_minimo: int" style="text;strokeColor=none;fillColor=none;align=left;verticalAlign=top;spacingLeft=4;spacingRight=4;overflow=hidden;rotatable=0;points=[[0,0.5],[1,0.5]];portConstraint=eastwest;whiteSpace=wrap;html=1;fontColor=#000000;" parent="Ump_3bpm_IfCM5Z30n2z-79" vertex="1">
          <mxGeometry y="26" width="156" height="26" as="geometry" />
        </mxCell>
        <mxCell id="Ump_3bpm_IfCM5Z30n2z-83" style="edgeStyle=orthogonalEdgeStyle;rounded=0;orthogonalLoop=1;jettySize=auto;html=1;entryX=0.38;entryY=1;entryDx=0;entryDy=0;entryPerimeter=0;fontColor=#000000;" parent="WIyWlLk6GJQsqaUBKTNV-1" source="Ump_3bpm_IfCM5Z30n2z-79" edge="1">
          <mxGeometry relative="1" as="geometry">
            <mxPoint x="150" y="-160.00000000000023" as="targetPoint" />
          </mxGeometry>
        </mxCell>
        <mxCell id="Ump_3bpm_IfCM5Z30n2z-84" value="1" style="edgeLabel;html=1;align=center;verticalAlign=middle;resizable=0;points=[];fontColor=#000000;" parent="Ump_3bpm_IfCM5Z30n2z-83" vertex="1" connectable="0">
          <mxGeometry x="0.6135" relative="1" as="geometry">
            <mxPoint as="offset" />
          </mxGeometry>
        </mxCell>
        <mxCell id="Ump_3bpm_IfCM5Z30n2z-85" value="1..*" style="edgeLabel;html=1;align=center;verticalAlign=middle;resizable=0;points=[];fontColor=#000000;" parent="Ump_3bpm_IfCM5Z30n2z-83" vertex="1" connectable="0">
          <mxGeometry x="-0.7939" y="1" relative="1" as="geometry">
            <mxPoint as="offset" />
          </mxGeometry>
        </mxCell>
        <mxCell id="Ump_3bpm_IfCM5Z30n2z-86" value="" style="endArrow=none;html=1;edgeStyle=orthogonalEdgeStyle;rounded=0;exitX=1;exitY=0.5;exitDx=0;exitDy=0;fontColor=#000000;" parent="WIyWlLk6GJQsqaUBKTNV-1" source="Ump_3bpm_IfCM5Z30n2z-80" edge="1">
          <mxGeometry relative="1" as="geometry">
            <mxPoint x="320" y="-60" as="sourcePoint" />
            <mxPoint x="600" y="-10" as="targetPoint" />
          </mxGeometry>
        </mxCell>
        <mxCell id="Ump_3bpm_IfCM5Z30n2z-87" value="1..*" style="edgeLabel;resizable=0;html=1;align=left;verticalAlign=bottom;fontColor=#000000;" parent="Ump_3bpm_IfCM5Z30n2z-86" connectable="0" vertex="1">
          <mxGeometry x="-1" relative="1" as="geometry" />
        </mxCell>
        <mxCell id="Ump_3bpm_IfCM5Z30n2z-88" value="1" style="edgeLabel;resizable=0;html=1;align=right;verticalAlign=bottom;fontColor=#000000;" parent="Ump_3bpm_IfCM5Z30n2z-86" connectable="0" vertex="1">
          <mxGeometry x="1" relative="1" as="geometry" />
        </mxCell>
        <mxCell id="oqvjpb8TwHMiU-xqvSP--2" value="&lt;pre class=&quot;!overflow-visible&quot;&gt;&lt;div class=&quot;dark bg-gray-950 contain-inline-size rounded-md border-[0.5px] border-token-border-medium relative&quot;&gt;&lt;div dir=&quot;ltr&quot; class=&quot;overflow-y-auto p-4&quot;&gt;&lt;code class=&quot;!whitespace-pre hljs language-plaintext&quot;&gt;{estado in (&#39;VIGENTE&#39;, &#39;ENTREGADA&#39;, &#39;ANULADA&#39;)}&lt;br/&gt;&lt;/code&gt;&lt;/div&gt;&lt;/div&gt;&lt;/pre&gt;" style="text;html=1;align=center;verticalAlign=middle;resizable=0;points=[];autosize=1;strokeColor=none;fillColor=none;" parent="WIyWlLk6GJQsqaUBKTNV-1" vertex="1">
          <mxGeometry x="1015" y="-213" width="330" height="50" as="geometry" />
        </mxCell>
        <mxCell id="oqvjpb8TwHMiU-xqvSP--10" value="Cliente " style="swimlane;fontStyle=1;align=center;verticalAlign=top;childLayout=stackLayout;horizontal=1;startSize=26;horizontalStack=0;resizeParent=1;resizeLast=0;collapsible=1;marginBottom=0;rounded=0;shadow=0;strokeWidth=1;fontColor=#000000;" parent="WIyWlLk6GJQsqaUBKTNV-1" vertex="1">
          <mxGeometry x="-300" y="-236" width="220" height="96" as="geometry">
            <mxRectangle x="550" y="140" width="160" height="26" as="alternateBounds" />
          </mxGeometry>
        </mxCell>
        <mxCell id="oqvjpb8TwHMiU-xqvSP--11" value="-cedula: int" style="text;align=left;verticalAlign=top;spacingLeft=4;spacingRight=4;overflow=hidden;rotatable=0;points=[[0,0.5],[1,0.5]];portConstraint=eastwest;rounded=0;shadow=0;html=0;fontColor=#000000;" parent="oqvjpb8TwHMiU-xqvSP--10" vertex="1">
          <mxGeometry y="26" width="220" height="26" as="geometry" />
        </mxCell>
        <mxCell id="oqvjpb8TwHMiU-xqvSP--12" value="-nombre:String" style="text;align=left;verticalAlign=top;spacingLeft=4;spacingRight=4;overflow=hidden;rotatable=0;points=[[0,0.5],[1,0.5]];portConstraint=eastwest;fontColor=#000000;" parent="oqvjpb8TwHMiU-xqvSP--10" vertex="1">
          <mxGeometry y="52" width="220" height="26" as="geometry" />
        </mxCell>
        <mxCell id="oqvjpb8TwHMiU-xqvSP--15" value="Venta" style="swimlane;fontStyle=1;align=center;verticalAlign=top;childLayout=stackLayout;horizontal=1;startSize=26;horizontalStack=0;resizeParent=1;resizeLast=0;collapsible=1;marginBottom=0;rounded=0;shadow=0;strokeWidth=1;fontColor=#000000;" parent="WIyWlLk6GJQsqaUBKTNV-1" vertex="1">
          <mxGeometry x="-300" y="-73" width="220" height="104" as="geometry">
            <mxRectangle x="550" y="140" width="160" height="26" as="alternateBounds" />
          </mxGeometry>
        </mxCell>
        <mxCell id="oqvjpb8TwHMiU-xqvSP--16" value="- fecha: Date&#xa;" style="text;align=left;verticalAlign=top;spacingLeft=4;spacingRight=4;overflow=hidden;rotatable=0;points=[[0,0.5],[1,0.5]];portConstraint=eastwest;rounded=0;shadow=0;html=0;fontColor=#000000;" parent="oqvjpb8TwHMiU-xqvSP--15" vertex="1">
          <mxGeometry y="26" width="220" height="26" as="geometry" />
        </mxCell>
        <mxCell id="oqvjpb8TwHMiU-xqvSP--25" value="- cantidad: int&#xa;" style="text;align=left;verticalAlign=top;spacingLeft=4;spacingRight=4;overflow=hidden;rotatable=0;points=[[0,0.5],[1,0.5]];portConstraint=eastwest;rounded=0;shadow=0;html=0;fontColor=#000000;" parent="oqvjpb8TwHMiU-xqvSP--15" vertex="1">
          <mxGeometry y="52" width="220" height="26" as="geometry" />
        </mxCell>
        <mxCell id="oqvjpb8TwHMiU-xqvSP--26" value="- precio_unitario: int&#xa;" style="text;align=left;verticalAlign=top;spacingLeft=4;spacingRight=4;overflow=hidden;rotatable=0;points=[[0,0.5],[1,0.5]];portConstraint=eastwest;rounded=0;shadow=0;html=0;fontColor=#000000;" parent="oqvjpb8TwHMiU-xqvSP--15" vertex="1">
          <mxGeometry y="78" width="220" height="26" as="geometry" />
        </mxCell>
        <mxCell id="oqvjpb8TwHMiU-xqvSP--18" value="" style="endArrow=none;html=1;rounded=0;exitX=0.5;exitY=0;exitDx=0;exitDy=0;entryX=0.5;entryY=1;entryDx=0;entryDy=0;" parent="WIyWlLk6GJQsqaUBKTNV-1" source="oqvjpb8TwHMiU-xqvSP--15" target="oqvjpb8TwHMiU-xqvSP--10" edge="1">
          <mxGeometry width="50" height="50" relative="1" as="geometry">
            <mxPoint x="-190" y="-80" as="sourcePoint" />
            <mxPoint x="-130" y="-140" as="targetPoint" />
          </mxGeometry>
        </mxCell>
        <mxCell id="oqvjpb8TwHMiU-xqvSP--20" value="1" style="edgeLabel;html=1;align=center;verticalAlign=middle;resizable=0;points=[];" parent="oqvjpb8TwHMiU-xqvSP--18" connectable="0" vertex="1">
          <mxGeometry x="0.6482" y="-1" relative="1" as="geometry">
            <mxPoint as="offset" />
          </mxGeometry>
        </mxCell>
        <mxCell id="oqvjpb8TwHMiU-xqvSP--21" value="*" style="edgeLabel;html=1;align=center;verticalAlign=middle;resizable=0;points=[];" parent="oqvjpb8TwHMiU-xqvSP--18" connectable="0" vertex="1">
          <mxGeometry x="-0.5715" y="1" relative="1" as="geometry">
            <mxPoint as="offset" />
          </mxGeometry>
        </mxCell>
        <mxCell id="oqvjpb8TwHMiU-xqvSP--22" value="" style="endArrow=none;html=1;rounded=0;exitX=1;exitY=0.25;exitDx=0;exitDy=0;entryX=0;entryY=0.5;entryDx=0;entryDy=0;" parent="WIyWlLk6GJQsqaUBKTNV-1" source="oqvjpb8TwHMiU-xqvSP--15" target="X5nv6v5gJ5mk2as4WkqO-1" edge="1">
          <mxGeometry width="50" height="50" relative="1" as="geometry">
            <mxPoint x="-80" y="-40" as="sourcePoint" />
            <mxPoint x="-30" y="-90" as="targetPoint" />
          </mxGeometry>
        </mxCell>
        <mxCell id="oqvjpb8TwHMiU-xqvSP--23" value="*" style="edgeLabel;html=1;align=center;verticalAlign=middle;resizable=0;points=[];" parent="oqvjpb8TwHMiU-xqvSP--22" connectable="0" vertex="1">
          <mxGeometry x="-0.8297" y="-3" relative="1" as="geometry">
            <mxPoint as="offset" />
          </mxGeometry>
        </mxCell>
        <mxCell id="oqvjpb8TwHMiU-xqvSP--24" value="*" style="edgeLabel;html=1;align=center;verticalAlign=middle;resizable=0;points=[];" parent="oqvjpb8TwHMiU-xqvSP--22" connectable="0" vertex="1">
          <mxGeometry x="0.816" y="-3" relative="1" as="geometry">
            <mxPoint as="offset" />
          </mxGeometry>
        </mxCell>
      </root>
    </mxGraphModel>
  </diagram>
</mxfile>
